<mxfile host="Electron" agent="Mozilla/5.0 (Windows NT 10.0; Win64; x64) AppleWebKit/537.36 (KHTML, like Gecko) draw.io/27.0.9 Chrome/134.0.6998.205 Electron/35.4.0 Safari/537.36" version="27.0.9">
  <diagram name="Сторінка-1" id="LpOnE0qaR_FF-DnYozsz">
    <mxGraphModel dx="1028" dy="1764" grid="1" gridSize="10" guides="1" tooltips="1" connect="1" arrows="1" fold="1" page="1" pageScale="1" pageWidth="827" pageHeight="1169" math="0" shadow="0">
      <root>
        <mxCell id="0" />
        <mxCell id="1" parent="0" />
        <mxCell id="-3pCZR0iLi4Munlg0A3q-2" value="" style="rounded=0;whiteSpace=wrap;html=1;" parent="1" vertex="1">
          <mxGeometry x="250" y="-30" width="660" height="340" as="geometry" />
        </mxCell>
        <mxCell id="-3pCZR0iLi4Munlg0A3q-1" value="&lt;b&gt;&lt;font style=&quot;font-size: 15px;&quot;&gt;Silver layer&amp;nbsp;&lt;br&gt;Table connection&lt;/font&gt;&lt;/b&gt;" style="text;html=1;align=center;verticalAlign=middle;whiteSpace=wrap;rounded=1;strokeWidth=1;perimeterSpacing=1;strokeColor=default;glass=0;shadow=0;" parent="1" vertex="1">
          <mxGeometry x="455" y="10" width="290" height="40" as="geometry" />
        </mxCell>
        <mxCell id="-3pCZR0iLi4Munlg0A3q-57" value="" style="shape=table;startSize=0;container=1;collapsible=1;childLayout=tableLayout;fixedRows=1;rowLines=0;fontStyle=0;align=center;resizeLast=1;strokeColor=default;fillColor=none;collapsible=0;" parent="1" vertex="1">
          <mxGeometry x="750" y="150" width="120" height="20" as="geometry" />
        </mxCell>
        <mxCell id="-3pCZR0iLi4Munlg0A3q-58" value="" style="shape=tableRow;horizontal=0;startSize=0;swimlaneHead=0;swimlaneBody=0;fillColor=none;collapsible=0;dropTarget=0;points=[[0,0.5],[1,0.5]];portConstraint=eastwest;top=0;left=0;right=0;bottom=0;" parent="-3pCZR0iLi4Munlg0A3q-57" vertex="1">
          <mxGeometry width="120" height="20" as="geometry" />
        </mxCell>
        <mxCell id="-3pCZR0iLi4Munlg0A3q-59" value="&lt;font style=&quot;font-size: 11px;&quot;&gt;PK&lt;/font&gt;" style="shape=partialRectangle;connectable=0;fillColor=none;top=0;left=0;bottom=0;right=0;fontStyle=0;overflow=hidden;whiteSpace=wrap;html=1;" parent="-3pCZR0iLi4Munlg0A3q-58" vertex="1">
          <mxGeometry width="30" height="20" as="geometry">
            <mxRectangle width="30" height="20" as="alternateBounds" />
          </mxGeometry>
        </mxCell>
        <mxCell id="-3pCZR0iLi4Munlg0A3q-60" value="&lt;font style=&quot;font-size: 11px;&quot;&gt;id&lt;/font&gt;" style="shape=partialRectangle;connectable=0;fillColor=none;top=0;left=0;bottom=0;right=0;align=left;spacingLeft=6;fontStyle=0;overflow=hidden;whiteSpace=wrap;html=1;" parent="-3pCZR0iLi4Munlg0A3q-58" vertex="1">
          <mxGeometry x="30" width="90" height="20" as="geometry">
            <mxRectangle width="90" height="20" as="alternateBounds" />
          </mxGeometry>
        </mxCell>
        <mxCell id="-3pCZR0iLi4Munlg0A3q-61" value="&lt;b&gt;payers&lt;/b&gt;" style="text;html=1;align=center;verticalAlign=middle;whiteSpace=wrap;rounded=0;strokeColor=default;" parent="1" vertex="1">
          <mxGeometry x="750" y="120" width="119.99999999999999" height="30" as="geometry" />
        </mxCell>
        <mxCell id="-3pCZR0iLi4Munlg0A3q-62" value="&lt;b&gt;patients&lt;/b&gt;" style="text;html=1;align=center;verticalAlign=middle;whiteSpace=wrap;rounded=0;strokeColor=default;" parent="1" vertex="1">
          <mxGeometry x="310" y="90" width="119.99999999999999" height="30" as="geometry" />
        </mxCell>
        <mxCell id="-3pCZR0iLi4Munlg0A3q-63" value="" style="shape=table;startSize=0;container=1;collapsible=1;childLayout=tableLayout;fixedRows=1;rowLines=0;fontStyle=0;align=center;resizeLast=1;strokeColor=default;fillColor=none;collapsible=0;" parent="1" vertex="1">
          <mxGeometry x="310" y="120" width="120" height="20" as="geometry" />
        </mxCell>
        <mxCell id="-3pCZR0iLi4Munlg0A3q-64" value="" style="shape=tableRow;horizontal=0;startSize=0;swimlaneHead=0;swimlaneBody=0;fillColor=none;collapsible=0;dropTarget=0;points=[[0,0.5],[1,0.5]];portConstraint=eastwest;top=0;left=0;right=0;bottom=0;" parent="-3pCZR0iLi4Munlg0A3q-63" vertex="1">
          <mxGeometry width="120" height="20" as="geometry" />
        </mxCell>
        <mxCell id="-3pCZR0iLi4Munlg0A3q-65" value="&lt;font style=&quot;font-size: 11px;&quot;&gt;PK&lt;/font&gt;" style="shape=partialRectangle;connectable=0;fillColor=none;top=0;left=0;bottom=0;right=0;fontStyle=0;overflow=hidden;whiteSpace=wrap;html=1;" parent="-3pCZR0iLi4Munlg0A3q-64" vertex="1">
          <mxGeometry width="30" height="20" as="geometry">
            <mxRectangle width="30" height="20" as="alternateBounds" />
          </mxGeometry>
        </mxCell>
        <mxCell id="-3pCZR0iLi4Munlg0A3q-66" value="&lt;font style=&quot;font-size: 11px;&quot;&gt;id&lt;/font&gt;" style="shape=partialRectangle;connectable=0;fillColor=none;top=0;left=0;bottom=0;right=0;align=left;spacingLeft=6;fontStyle=0;overflow=hidden;whiteSpace=wrap;html=1;" parent="-3pCZR0iLi4Munlg0A3q-64" vertex="1">
          <mxGeometry x="30" width="90" height="20" as="geometry">
            <mxRectangle width="90" height="20" as="alternateBounds" />
          </mxGeometry>
        </mxCell>
        <mxCell id="-3pCZR0iLi4Munlg0A3q-75" value="" style="shape=table;startSize=0;container=1;collapsible=1;childLayout=tableLayout;fixedRows=1;rowLines=0;fontStyle=0;align=center;resizeLast=1;strokeColor=default;fillColor=none;collapsible=0;" parent="1" vertex="1">
          <mxGeometry x="310" y="210" width="120" height="24" as="geometry" />
        </mxCell>
        <mxCell id="-3pCZR0iLi4Munlg0A3q-76" value="" style="shape=tableRow;horizontal=0;startSize=0;swimlaneHead=0;swimlaneBody=0;fillColor=none;collapsible=0;dropTarget=0;points=[[0,0.5],[1,0.5]];portConstraint=eastwest;top=0;left=0;right=0;bottom=0;" parent="-3pCZR0iLi4Munlg0A3q-75" vertex="1">
          <mxGeometry width="120" height="24" as="geometry" />
        </mxCell>
        <mxCell id="-3pCZR0iLi4Munlg0A3q-77" value="&lt;font style=&quot;font-size: 11px;&quot;&gt;FK&lt;/font&gt;" style="shape=partialRectangle;connectable=0;fillColor=none;top=0;left=0;bottom=0;right=0;fontStyle=0;overflow=hidden;whiteSpace=wrap;html=1;" parent="-3pCZR0iLi4Munlg0A3q-76" vertex="1">
          <mxGeometry width="30" height="24" as="geometry">
            <mxRectangle width="30" height="24" as="alternateBounds" />
          </mxGeometry>
        </mxCell>
        <mxCell id="-3pCZR0iLi4Munlg0A3q-78" value="&lt;font style=&quot;font-size: 11px;&quot;&gt;encounters&lt;/font&gt;" style="shape=partialRectangle;connectable=0;fillColor=none;top=0;left=0;bottom=0;right=0;align=left;spacingLeft=6;fontStyle=0;overflow=hidden;whiteSpace=wrap;html=1;" parent="-3pCZR0iLi4Munlg0A3q-76" vertex="1">
          <mxGeometry x="30" width="90" height="24" as="geometry">
            <mxRectangle width="90" height="24" as="alternateBounds" />
          </mxGeometry>
        </mxCell>
        <mxCell id="-3pCZR0iLi4Munlg0A3q-79" value="&lt;b&gt;procedures_table&lt;/b&gt;" style="text;html=1;align=center;verticalAlign=middle;whiteSpace=wrap;rounded=0;strokeColor=default;" parent="1" vertex="1">
          <mxGeometry x="310" y="160" width="119.99999999999999" height="30" as="geometry" />
        </mxCell>
        <mxCell id="-3pCZR0iLi4Munlg0A3q-14" value="" style="shape=table;startSize=0;container=1;collapsible=1;childLayout=tableLayout;fixedRows=1;rowLines=0;fontStyle=0;align=center;resizeLast=1;strokeColor=default;fillColor=none;collapsible=0;" parent="1" vertex="1">
          <mxGeometry x="530" y="130" width="120" height="20" as="geometry" />
        </mxCell>
        <mxCell id="-3pCZR0iLi4Munlg0A3q-15" value="" style="shape=tableRow;horizontal=0;startSize=0;swimlaneHead=0;swimlaneBody=0;fillColor=none;collapsible=0;dropTarget=0;points=[[0,0.5],[1,0.5]];portConstraint=eastwest;top=0;left=0;right=0;bottom=0;" parent="-3pCZR0iLi4Munlg0A3q-14" vertex="1">
          <mxGeometry width="120" height="20" as="geometry" />
        </mxCell>
        <mxCell id="-3pCZR0iLi4Munlg0A3q-16" value="&lt;font style=&quot;font-size: 11px;&quot;&gt;PK&lt;/font&gt;" style="shape=partialRectangle;connectable=0;fillColor=none;top=0;left=0;bottom=0;right=0;fontStyle=0;overflow=hidden;whiteSpace=wrap;html=1;" parent="-3pCZR0iLi4Munlg0A3q-15" vertex="1">
          <mxGeometry width="30" height="20" as="geometry">
            <mxRectangle width="30" height="20" as="alternateBounds" />
          </mxGeometry>
        </mxCell>
        <mxCell id="-3pCZR0iLi4Munlg0A3q-17" value="&lt;font style=&quot;font-size: 11px;&quot;&gt;id&lt;/font&gt;" style="shape=partialRectangle;connectable=0;fillColor=none;top=0;left=0;bottom=0;right=0;align=left;spacingLeft=6;fontStyle=0;overflow=hidden;whiteSpace=wrap;html=1;" parent="-3pCZR0iLi4Munlg0A3q-15" vertex="1">
          <mxGeometry x="30" width="90" height="20" as="geometry">
            <mxRectangle width="90" height="20" as="alternateBounds" />
          </mxGeometry>
        </mxCell>
        <mxCell id="-3pCZR0iLi4Munlg0A3q-23" value="" style="shape=table;startSize=0;container=1;collapsible=1;childLayout=tableLayout;fixedRows=1;rowLines=0;fontStyle=0;align=center;resizeLast=1;strokeColor=default;fillColor=none;collapsible=0;" parent="1" vertex="1">
          <mxGeometry x="530" y="150" width="120" height="20" as="geometry" />
        </mxCell>
        <mxCell id="-3pCZR0iLi4Munlg0A3q-24" value="" style="shape=tableRow;horizontal=0;startSize=0;swimlaneHead=0;swimlaneBody=0;fillColor=none;collapsible=0;dropTarget=0;points=[[0,0.5],[1,0.5]];portConstraint=eastwest;top=0;left=0;right=0;bottom=0;" parent="-3pCZR0iLi4Munlg0A3q-23" vertex="1">
          <mxGeometry width="120" height="20" as="geometry" />
        </mxCell>
        <mxCell id="-3pCZR0iLi4Munlg0A3q-25" value="&lt;font style=&quot;font-size: 11px;&quot;&gt;FK&lt;/font&gt;" style="shape=partialRectangle;connectable=0;fillColor=none;top=0;left=0;bottom=0;right=0;fontStyle=0;overflow=hidden;whiteSpace=wrap;html=1;" parent="-3pCZR0iLi4Munlg0A3q-24" vertex="1">
          <mxGeometry width="30" height="20" as="geometry">
            <mxRectangle width="30" height="20" as="alternateBounds" />
          </mxGeometry>
        </mxCell>
        <mxCell id="-3pCZR0iLi4Munlg0A3q-26" value="&lt;font style=&quot;font-size: 11px;&quot;&gt;payers&lt;/font&gt;" style="shape=partialRectangle;connectable=0;fillColor=none;top=0;left=0;bottom=0;right=0;align=left;spacingLeft=6;fontStyle=0;overflow=hidden;whiteSpace=wrap;html=1;" parent="-3pCZR0iLi4Munlg0A3q-24" vertex="1">
          <mxGeometry x="30" width="90" height="20" as="geometry">
            <mxRectangle width="90" height="20" as="alternateBounds" />
          </mxGeometry>
        </mxCell>
        <mxCell id="-3pCZR0iLi4Munlg0A3q-19" value="" style="shape=table;startSize=0;container=1;collapsible=1;childLayout=tableLayout;fixedRows=1;rowLines=0;fontStyle=0;align=center;resizeLast=1;strokeColor=default;fillColor=none;collapsible=0;" parent="1" vertex="1">
          <mxGeometry x="530" y="170" width="120" height="24" as="geometry" />
        </mxCell>
        <mxCell id="-3pCZR0iLi4Munlg0A3q-20" value="" style="shape=tableRow;horizontal=0;startSize=0;swimlaneHead=0;swimlaneBody=0;fillColor=none;collapsible=0;dropTarget=0;points=[[0,0.5],[1,0.5]];portConstraint=eastwest;top=0;left=0;right=0;bottom=0;" parent="-3pCZR0iLi4Munlg0A3q-19" vertex="1">
          <mxGeometry width="120" height="24" as="geometry" />
        </mxCell>
        <mxCell id="-3pCZR0iLi4Munlg0A3q-21" value="&lt;font style=&quot;font-size: 11px;&quot;&gt;FK&lt;/font&gt;" style="shape=partialRectangle;connectable=0;fillColor=none;top=0;left=0;bottom=0;right=0;fontStyle=0;overflow=hidden;whiteSpace=wrap;html=1;" parent="-3pCZR0iLi4Munlg0A3q-20" vertex="1">
          <mxGeometry width="30" height="24" as="geometry">
            <mxRectangle width="30" height="24" as="alternateBounds" />
          </mxGeometry>
        </mxCell>
        <mxCell id="-3pCZR0iLi4Munlg0A3q-22" value="&lt;font style=&quot;font-size: 11px;&quot;&gt;patient&lt;/font&gt;" style="shape=partialRectangle;connectable=0;fillColor=none;top=0;left=0;bottom=0;right=0;align=left;spacingLeft=6;fontStyle=0;overflow=hidden;whiteSpace=wrap;html=1;" parent="-3pCZR0iLi4Munlg0A3q-20" vertex="1">
          <mxGeometry x="30" width="90" height="24" as="geometry">
            <mxRectangle width="90" height="24" as="alternateBounds" />
          </mxGeometry>
        </mxCell>
        <mxCell id="-3pCZR0iLi4Munlg0A3q-18" value="&lt;b&gt;encounters&lt;/b&gt;" style="text;html=1;align=center;verticalAlign=middle;whiteSpace=wrap;rounded=0;strokeColor=default;" parent="1" vertex="1">
          <mxGeometry x="530" y="100" width="119.99999999999999" height="30" as="geometry" />
        </mxCell>
        <mxCell id="-3pCZR0iLi4Munlg0A3q-71" value="" style="shape=table;startSize=0;container=1;collapsible=1;childLayout=tableLayout;fixedRows=1;rowLines=0;fontStyle=0;align=center;resizeLast=1;strokeColor=default;fillColor=none;collapsible=0;" parent="1" vertex="1">
          <mxGeometry x="310" y="190" width="120" height="20" as="geometry" />
        </mxCell>
        <mxCell id="-3pCZR0iLi4Munlg0A3q-72" value="" style="shape=tableRow;horizontal=0;startSize=0;swimlaneHead=0;swimlaneBody=0;fillColor=none;collapsible=0;dropTarget=0;points=[[0,0.5],[1,0.5]];portConstraint=eastwest;top=0;left=0;right=0;bottom=0;" parent="-3pCZR0iLi4Munlg0A3q-71" vertex="1">
          <mxGeometry width="120" height="20" as="geometry" />
        </mxCell>
        <mxCell id="-3pCZR0iLi4Munlg0A3q-73" value="&lt;font style=&quot;font-size: 11px;&quot;&gt;FK&lt;/font&gt;" style="shape=partialRectangle;connectable=0;fillColor=none;top=0;left=0;bottom=0;right=0;fontStyle=0;overflow=hidden;whiteSpace=wrap;html=1;" parent="-3pCZR0iLi4Munlg0A3q-72" vertex="1">
          <mxGeometry width="30" height="20" as="geometry">
            <mxRectangle width="30" height="20" as="alternateBounds" />
          </mxGeometry>
        </mxCell>
        <mxCell id="-3pCZR0iLi4Munlg0A3q-74" value="&lt;span style=&quot;font-size: 11px;&quot;&gt;patient&lt;/span&gt;" style="shape=partialRectangle;connectable=0;fillColor=none;top=0;left=0;bottom=0;right=0;align=left;spacingLeft=6;fontStyle=0;overflow=hidden;whiteSpace=wrap;html=1;" parent="-3pCZR0iLi4Munlg0A3q-72" vertex="1">
          <mxGeometry x="30" width="90" height="20" as="geometry">
            <mxRectangle width="90" height="20" as="alternateBounds" />
          </mxGeometry>
        </mxCell>
        <mxCell id="-3pCZR0iLi4Munlg0A3q-88" value="" style="edgeStyle=entityRelationEdgeStyle;fontSize=12;html=1;endArrow=ERzeroToMany;endFill=1;rounded=0;exitX=0;exitY=0.5;exitDx=0;exitDy=0;entryX=1;entryY=0.5;entryDx=0;entryDy=0;" parent="1" source="-3pCZR0iLi4Munlg0A3q-58" target="-3pCZR0iLi4Munlg0A3q-24" edge="1">
          <mxGeometry width="100" height="100" relative="1" as="geometry">
            <mxPoint x="630" y="310" as="sourcePoint" />
            <mxPoint x="730" y="210" as="targetPoint" />
          </mxGeometry>
        </mxCell>
        <mxCell id="-3pCZR0iLi4Munlg0A3q-92" value="" style="edgeStyle=entityRelationEdgeStyle;fontSize=12;html=1;endArrow=ERoneToMany;rounded=0;entryX=1;entryY=0.5;entryDx=0;entryDy=0;" parent="1" source="-3pCZR0iLi4Munlg0A3q-64" target="-3pCZR0iLi4Munlg0A3q-72" edge="1">
          <mxGeometry width="100" height="100" relative="1" as="geometry">
            <mxPoint x="280" y="350" as="sourcePoint" />
            <mxPoint x="360" y="250" as="targetPoint" />
            <Array as="points">
              <mxPoint x="540" y="250" />
              <mxPoint x="540" y="220" />
              <mxPoint x="480" y="170" />
            </Array>
          </mxGeometry>
        </mxCell>
        <mxCell id="-3pCZR0iLi4Munlg0A3q-94" value="" style="edgeStyle=entityRelationEdgeStyle;fontSize=12;html=1;endArrow=ERoneToMany;rounded=0;exitX=1;exitY=0.5;exitDx=0;exitDy=0;entryX=0;entryY=0.5;entryDx=0;entryDy=0;" parent="1" source="-3pCZR0iLi4Munlg0A3q-64" target="-3pCZR0iLi4Munlg0A3q-20" edge="1">
          <mxGeometry width="100" height="100" relative="1" as="geometry">
            <mxPoint x="350" y="310" as="sourcePoint" />
            <mxPoint x="450" y="210" as="targetPoint" />
            <Array as="points">
              <mxPoint x="320" y="190" />
            </Array>
          </mxGeometry>
        </mxCell>
        <mxCell id="-3pCZR0iLi4Munlg0A3q-96" value="" style="edgeStyle=entityRelationEdgeStyle;fontSize=12;html=1;endArrow=ERoneToMany;rounded=0;entryX=1.023;entryY=0.8;entryDx=0;entryDy=0;entryPerimeter=0;" parent="1" target="-3pCZR0iLi4Munlg0A3q-76" edge="1" source="-3pCZR0iLi4Munlg0A3q-15">
          <mxGeometry width="100" height="100" relative="1" as="geometry">
            <mxPoint x="430" y="225" as="sourcePoint" />
            <mxPoint x="530" y="125" as="targetPoint" />
          </mxGeometry>
        </mxCell>
      </root>
    </mxGraphModel>
  </diagram>
</mxfile>
